<svg t="1738290778129" class="icon" viewBox="0 0 1088 1024" version="1.1" xmlns="http://www.w3.org/2000/svg" p-id="899" width="256" height="256"><path d="M64 0c3.968 0 7.872 0.32 11.776 1.024l5.76 1.28 400.64 108.48 396.16-108.288c31.552-8.64 64.384 6.848 76.736 35.008l2.432 6.72a58.24 58.24 0 0 1 2.24 11.072l0.256 5.76v401.28h-64V61.056L482.24 173.952 64 60.864v789.12l416.064 113.152 248.576-72.96 17.6 58.496-248.64 72.96a67.2 67.2 0 0 1-26.432 1.792l-8.768-1.792-416-113.024a61.888 61.888 0 0 1-45.952-51.2L0 849.984V60.928C0 27.2 28.672 0 64 0z" p-id="900"></path><path d="M822.08 249.344a40.832 40.832 0 0 1-29.568 39.232l-186.944 53.696A23.168 23.168 0 0 1 576 320c0-18.24 12.032-34.24 29.568-39.232l186.88-53.696a23.168 23.168 0 0 1 29.632 22.272zM512 128v864H448V128zM1024.064 818.24a32 32 0 0 1 5.76 63.488l-5.76 0.512H731.52a32 32 0 0 1-5.76-63.488l5.76-0.512h292.544z" p-id="901"></path><path d="M882.624 638.592a32 32 0 0 1 40.768 4.352l3.648 4.48 112.832 168.896a96 96 0 0 1 15.744 43.84l0.448 9.472v35.456a50.304 50.304 0 0 1-43.52 49.856l-6.784 0.448h-255.936a50.304 50.304 0 0 1-49.856-43.52l-0.448-6.784v-35.456c0-15.808 3.904-31.36 11.328-45.184l4.864-8.128 112.768-168.896a32 32 0 0 1 44.416-8.832l2.368 1.728 2.496 2.304 0.384-0.384 4.48-3.648z m-4.864 50.24l-108.8 163.008a32 32 0 0 0-4.8 11.52l-0.64 6.272v21.696h228.544v-21.696a32 32 0 0 0-2.432-12.224l-2.944-5.568-108.928-163.008z" p-id="902"></path><path d="M877.76 416a141.696 141.696 0 1 0 0 283.328 141.696 141.696 0 0 0 0-283.328z m0 64a77.696 77.696 0 1 1 0.064 155.328 77.696 77.696 0 0 1 0-155.328z" p-id="903"></path></svg>