<svg t="1738290837602" class="icon" viewBox="0 0 1024 1024" version="1.1" xmlns="http://www.w3.org/2000/svg" p-id="1062" width="256" height="256"><path d="M64.0014 0c3.967988 0 7.871975 0.319999 11.775963 1.023997l5.759982 1.279996 400.638748 108.479661 396.158762-108.287662c31.551901-8.639973 64.383799 6.847979 76.73576 35.007891l2.431993 6.719979a58.239818 58.239818 0 0 1 2.239993 11.071965l0.255999 5.759982v624.894047h-63.9998V60.991809L482.240093 174.079456 64.0014 60.86381v789.117534l416.0627 113.151646 223.359302-61.695807 17.599945 58.559817-223.423302 61.631807a67.19979 67.19979 0 0 1-26.431917 1.791995l-8.767973-1.791995-415.9987-113.023646a61.887807 61.887807 0 0 1-45.951856-51.19984L0.0016 849.981344V60.92781C0.0016 27.199915 28.67351 0 64.0014 0z" p-id="1063"></path><path d="M822.079031 249.343221a40.831872 40.831872 0 0 1-29.567908 39.231877l-186.943415 53.695832A23.167928 23.167928 0 0 1 575.9998 319.999c0-18.239943 12.031962-34.239893 29.567908-39.231877l186.879416-53.695833a23.167928 23.167928 0 0 1 29.631907 22.271931zM512 127.9996v863.9973H448.0002V127.9996zM831.999 594.494142l129.983594 75.007766a63.9998 63.9998 0 0 1 31.9999 55.423827v150.14353a63.9998 63.9998 0 0 1-31.9999 55.423827L831.999 1005.436858a63.9998 63.9998 0 0 1-63.9998 0L638.015606 930.557092a63.9998 63.9998 0 0 1-31.9999-55.423827v-150.143531a63.9998 63.9998 0 0 1 31.9999-55.423826L767.9992 594.558142a63.9998 63.9998 0 0 1 63.9998 0z m97.983694 130.431593L799.9991 649.917969l-129.983594 75.007766v150.14353l129.983594 75.007766 129.983594-75.007766v-150.14353z" p-id="1064"></path><path d="M799.9991 703.9978a95.9997 95.9997 0 1 1 0 191.9994 95.9997 95.9997 0 0 1 0-191.9994z m0 63.9998a31.9999 31.9999 0 1 0 0 63.9998 31.9999 31.9999 0 0 0 0-63.9998z" p-id="1065"></path></svg>