<svg t="1738293143626" class="icon" viewBox="0 0 1024 1024" version="1.1" xmlns="http://www.w3.org/2000/svg" p-id="110654" width="256" height="256"><path d="M865.255502 423.257416V158.805742A94.683254 94.683254 0 0 0 771.429665 64.91866h-93.887081V0h-52.914833v64.857416H244.11866V0h-52.914832v64.857416H97.316746A94.744498 94.744498 0 0 0 3.429665 158.744498v646.798086a94.683254 94.683254 0 0 0 93.887081 93.825837h348.111005c59.774163 73.492823 148.516746 124.631579 254.285168 124.631579a324.042105 324.042105 0 0 0 165.358851-600.742584zM93.948325 116.057416H187.774163v34.174163h56.283253v-34.112919h382.285168v34.051675h52.914832v-34.112919h92.172249a41.584689 41.584689 0 0 1 40.972249 40.911005v93.887081H56.466986v-95.540669a37.236364 37.236364 0 0 1 37.542583-39.257417z m0 723.598086a41.462201 41.462201 0 0 1-40.972248-40.972248V302.300478h755.996172v93.642106a358.216268 358.216268 0 0 0-114.342584-22.170335 322.327273 322.327273 0 0 0-322.572249 322.572249 311.487081 311.487081 0 0 0 34.174163 143.311004h-312.344498z m604.111005 124.631579a267.942584 267.942584 0 0 1 0-535.885167c146.985646 0 271.311005 121.14067 271.311005 267.942584s-122.855502 267.942584-271.311005 267.942583z m0 0" p-id="110655"></path><path d="M740.685167 696.344498V525.657416h-52.914832v223.724402h218.457416v-52.853588z m0 0" p-id="110656"></path></svg>