<svg t="1737449131676" class="icon" viewBox="0 0 1024 1024" version="1.1" xmlns="http://www.w3.org/2000/svg" p-id="4214" width="256" height="256"><path d="M758.656 701.504L611.776 624.32l-2.816-1.344-2.816 1.344-147.264 77.376-19.776 10.368 19.776 10.368 147.264 77.376 2.816 1.472 2.816-1.472 114.56-60.16v61.568l-10.368 22.656 10.368 22.656v21.568h15.04v-21.568l10.432-22.656-10.432-22.656v-69.504l17.664-9.28 18.048-10.368-18.432-10.56z m-149.696 114.624l-98.432-51.776v67.712l98.432 70.848 98.368-70.848v-67.712l-98.368 51.776z" p-id="4215"></path><path d="M181.632 67.52a30.464 30.464 0 0 0-30.208 30.72v97.088h97.984c16.704 0 30.272 13.76 30.272 30.72v99.648a30.464 30.464 0 0 1-30.272 30.656H151.424v77.44h97.984c16.704 0 30.272 13.696 30.272 30.656v99.648a30.464 30.464 0 0 1-30.272 30.656H151.424v86.528h97.984c16.704 0 30.272 13.76 30.272 30.656v99.712a30.464 30.464 0 0 1-30.272 30.656H151.424v82.944c0 16.96 13.504 30.656 30.208 30.656h645.76V67.52H181.632z m610.112 852.224H187.136v-41.216h62.272c36.416 0 65.984-29.952 65.984-66.88v-99.712a66.56 66.56 0 0 0-65.984-66.88h-62.272v-13.952h62.272a66.56 66.56 0 0 0 65.984-66.944V464.512c0-36.928-29.568-66.88-65.984-66.88h-62.272v-5.056h62.272a66.56 66.56 0 0 0 65.984-66.944V226.048a66.56 66.56 0 0 0-65.984-66.944h-62.272v-55.296h604.608v815.936zM928.832 67.52h-76.224v888.512h76.224a30.528 30.528 0 0 0 30.272-30.656V98.24a30.592 30.592 0 0 0-30.272-30.72z m-5.44 852.224h-35.072V103.808h35.072v815.936z" p-id="4216"></path><path d="M236.416 294.336a30.4 30.4 0 0 1-29.952 30.976H96.32a30.528 30.528 0 0 1-29.952-30.976v-47.168c0-17.152 13.376-30.976 29.952-30.976h110.144c16.512 0 29.952 13.888 29.952 30.976v47.168zM236.416 534.72a30.464 30.464 0 0 1-29.952 31.04H96.32a30.592 30.592 0 0 1-29.952-31.04v-47.104c0-17.152 13.376-31.04 29.952-31.04h110.144c16.512 0 29.952 13.888 29.952 31.04v47.104zM236.416 785.472a30.4 30.4 0 0 1-29.952 30.976H96.32a30.528 30.528 0 0 1-29.952-30.976v-47.168c0-17.152 13.376-30.976 29.952-30.976h110.144c16.512 0 29.952 13.888 29.952 30.976v47.168z" p-id="4217"></path></svg>