<svg t="1738293356300" class="icon" viewBox="0 0 1024 1024" version="1.1" xmlns="http://www.w3.org/2000/svg" p-id="124049" width="256" height="256"><path d="M896 448H128v447.957l477.739 0.022L896 895.957V448z m0-42.667v-213.29C896 192 768 192 768 192v-42.667h128.043a42.667 42.667 0 0 1 42.624 42.71v703.914a42.624 42.624 0 0 1-42.603 42.71H127.936a42.667 42.667 0 0 1-42.603-42.71V192.043c0-23.574 18.923-42.71 42.624-42.71H256V192l-128 0.043v213.29h768z m-597.333-320h42.666V256h-42.666V85.333z m384 0h42.666V256h-42.666V85.333z m-298.667 64h256V192H384v-42.667z" p-id="124050"></path></svg>