<svg t="1738293285620" class="icon" viewBox="0 0 1024 1024" version="1.1" xmlns="http://www.w3.org/2000/svg" p-id="117883" width="256" height="256"><path d="M750.933 482.133c-149.333 0-268.8 119.467-268.8 268.8s119.467 268.8 268.8 268.8 268.8-119.466 268.8-268.8-119.466-268.8-268.8-268.8z m0 494.934c-123.733 0-226.133-102.4-226.133-226.134S627.2 524.8 750.933 524.8s226.134 102.4 226.134 226.133-102.4 226.134-226.134 226.134z" p-id="117884"></path><path d="M904.533 695.467l-25.6-42.667c-4.266-8.533-17.066-12.8-25.6-8.533l-38.4 12.8c-4.266-4.267-8.533-4.267-12.8-4.267l-4.266-38.4c0-8.533-8.534-17.067-21.334-17.067h-51.2c-8.533 0-21.333 8.534-21.333 17.067l-4.267 38.4c-4.266 0-8.533 4.267-8.533 4.267l-42.667-12.8c-8.533-4.267-21.333 0-25.6 8.533l-25.6 42.667c-4.266 8.533-4.266 21.333 4.267 29.866l34.133 25.6v8.534l-34.133 25.6c-8.533 8.533-12.8 17.066-4.267 29.866l25.6 42.667c4.267 8.533 17.067 12.8 25.6 8.533l42.667-17.066c4.267 0 4.267 4.266 8.533 4.266L708.267 896c0 8.533 8.533 17.067 21.333 17.067h51.2c8.533 0 21.333-8.534 21.333-17.067l8.534-38.4c4.266 0 4.266-4.267 8.533-4.267l42.667 17.067c8.533 4.267 21.333 0 25.6-8.533l25.6-42.667c4.266-8.533 4.266-21.333-4.267-29.867l-29.867-25.6v-12.8l34.134-25.6C908.8 716.8 908.8 704 904.533 695.467z m-81.066 55.466v12.8c0 8.534 0 17.067 8.533 21.334l25.6 21.333-4.267 8.533-34.133-12.8c-8.533-4.266-12.8 0-21.333 4.267-4.267 4.267-12.8 8.533-21.334 8.533-8.533 4.267-12.8 8.534-12.8 17.067l-4.266 34.133h-12.8L742.4 832c0-8.533-4.267-12.8-12.8-17.067-8.533-4.266-12.8-4.266-17.067-8.533-4.266-4.267-12.8-4.267-21.333-4.267l-42.667 8.534-4.266-8.534 29.866-21.333c4.267-4.267 8.534-12.8 8.534-21.333V742.4c0-8.533 0-17.067-8.534-21.333l-25.6-21.334 4.267-8.533 34.133 12.8c8.534 4.267 12.8 0 21.334-4.267 4.266-4.266 12.8-8.533 21.333-12.8 8.533-4.266 12.8-8.533 12.8-17.066L746.667 640h12.8l4.266 29.867c0 8.533 8.534 12.8 12.8 17.066 8.534 4.267 12.8 8.534 21.334 12.8C802.133 704 810.667 704 819.2 704l34.133-12.8 4.267 8.533-25.6 21.334c-4.267 4.266-8.533 12.8-8.533 21.333v8.533z" p-id="117885"></path><path d="M750.933 695.467c-34.133 0-59.733 25.6-59.733 55.466 0 29.867 25.6 55.467 59.733 55.467 34.134 0 59.734-25.6 59.734-55.467 0-29.866-25.6-55.466-59.734-55.466z m0 72.533c-8.533 0-17.066-8.533-17.066-12.8s8.533-12.8 17.066-12.8S768 750.933 768 755.2s-8.533 12.8-17.067 12.8z" p-id="117886"></path><path d="M503.467 942.933H98.133c-29.866 0-51.2-21.333-51.2-46.933V358.4H857.6v98.133c0 12.8 8.533 21.334 21.333 21.334s21.334-8.534 21.334-21.334v-268.8c0-51.2-42.667-89.6-93.867-89.6H695.467V55.467c0-25.6-21.334-46.934-46.934-46.934s-51.2 17.067-51.2 42.667v42.667H307.2V51.2c0-25.6-21.333-46.933-46.933-46.933s-51.2 21.333-51.2 46.933v42.667H98.133c-51.2 0-93.866 42.666-93.866 89.6v708.266c0 51.2 42.666 89.6 93.866 89.6h405.334c12.8 0 21.333-8.533 21.333-21.333s-12.8-17.067-21.333-17.067zM640 51.2c0-4.267 4.267-4.267 4.267-4.267l4.266 4.267v123.733c0 4.267-12.8 4.267-12.8 0V51.2z m-388.267 0c0-4.267 4.267-4.267 4.267-4.267 4.267 0 4.267 4.267 4.267 4.267v123.733c0 4.267-12.8 4.267-12.8 0V51.2z m-153.6 85.333h110.934v34.134c0 25.6 21.333 46.933 46.933 46.933s46.933-21.333 46.933-46.933v-34.134h294.4v34.134c0 25.6 21.334 46.933 46.934 46.933s46.933-21.333 46.933-46.933v-34.134h110.933c29.867 0 51.2 21.334 51.2 46.934v128H42.667v-128c4.266-21.334 25.6-46.934 55.466-46.934z" p-id="117887"></path></svg>