<svg t="1737908133436" class="icon" viewBox="0 0 1024 1024" version="1.1" xmlns="http://www.w3.org/2000/svg" p-id="4231" width="256" height="256"><path d="M751.776342 966.979142c-12.163904 0.634817-679.437976 0-679.437976 0v-10.884032C90.451115 832.582342 177.185481 729.322268 297.176042 688.448275h7.822578a234.769483 234.769483 0 0 0 99.717388 21.768063c3.726987 0.092151 7.464214 0.10239 11.211679 0.020478 134.939466-2.866913 241.947005-112.669693 239.039136-245.254194a257.284992 257.284992 0 0 0-22.157144-103.086012l-4.556344-9.604159h10.423277c2.959064-0.79864 5.672393-2.344726 7.832817-4.484672l144.676732-92.20198a38.273293 38.273293 0 0 0 17.6008-30.09235 34.99682 34.99682 0 0 0-13.044455-27.532607L428.808319 5.242356a23.119608 23.119608 0 0 0-29.324427 0L37.157244 200.530347a35.621398 35.621398 0 0 0-13.689511 27.542846 37.556564 37.556564 0 0 0 13.023978 27.532606l149.243315 94.116669-3.911288 7.679232a245.79686 245.79686 0 0 0-22.812439 103.731067c0.215018 64.40316 25.116208 126.348965 69.737666 173.530167l9.112689 8.969343-11.733867 5.754304C95.877772 717.363144 14.242416 850.234337 13.689511 995.156804v28.80224h739.366703c36.819358-31.372223-1.279872-56.979902-1.279872-56.979902z m-531.505249-667.837216l-112.741366-66.594301L404.705769 75.676272l310.20002 157.516409-102.307849 64.024317a8.549545 8.549545 0 0 0-4.576822 3.839616l-7.8021 8.324288-9.122928-8.324288c-46.80236-53.048135-114.952985-83.242876-186.40056-82.59782-67.607959 0.092151-132.277332 27.133287-179.212798 74.918588l-5.211639 5.764544z m6.860114 179.622358c-6.122908-102.379522 73.382742-190.250415 177.574562-196.270933 103.792501 1.382262 187.59852 83.70363 188.991021 185.683831-1.423218 101.867573-85.311149 184.014879-188.991021 185.049015-95.642276-5.508569-171.943126-80.488591-177.574562-174.461913z" p-id="4232"></path><path d="M51.481572 191.571243c15.194641 0.90103 27.419978 12.634897 28.689611 27.532607v267.646835h3.245755a43.90473 43.90473 0 0 1 17.590561 35.867133c3.143366 26.682772-16.351645 50.846755-43.525887 53.918448S5.744066 560.461074 2.610939 533.757824a49.423538 49.423538 0 0 1 0-11.140006 43.925207 43.925207 0 0 1 17.590561-35.867133h3.266233V220.383722c0.593861-15.174163 12.624658-27.532607 28.013839-28.812479zM979.644756 694.745245h-123.994001V570.761484a42.286971 42.286971 0 0 0-42.256254-42.235777 42.286971 42.286971 0 0 0-42.246016 42.235777v123.973522H647.052095a42.307449 42.307449 0 0 0-42.256255 42.266494 42.307449 42.307449 0 0 0 42.256255 42.246015h123.973522v123.983762a42.307449 42.307449 0 0 0 42.266494 42.246015 42.307449 42.307449 0 0 0 42.256254-42.246015V779.247515H979.511649a42.307449 42.307449 0 0 0 42.246015-42.246015 42.184582 42.184582 0 0 0-42.112908-42.256255z" p-id="4233"></path></svg>