<svg t="1737908195793" class="icon" viewBox="0 0 1024 1024" version="1.1" xmlns="http://www.w3.org/2000/svg" p-id="5268" width="256" height="256"><path d="M550.917857 551.225187c35.54063 14.2009 67.396702 36.231484 93.111844 64.479761-10.976912 9.211394-20.725637 19.804498-29.092654 31.472263-57.264168-65.631184-149.301349-88.736432-230.822189-58.031784-81.52084 30.704648-135.330735 108.847976-135.100449 195.972414v41.297751H207.025803v-42.065367c0.46057-102.937331 63.481859-195.204798 159.203598-233.048276C291.386822 509.15982 254.31096 421.958621 276.034499 338.97931 297.758037 255.923238 372.754139 198.044978 458.573629 198.044978c85.81949 0 160.815592 57.878261 182.53913 140.934332 21.646777 82.97931-15.352324 170.18051-90.194902 212.245877zM458.573629 236.809595c-81.674363 0-147.91964 66.091754-148.149925 147.766117-0.230285 81.674363 65.707946 148.149925 147.382309 148.533733 81.674363 0.46057 148.303448-65.324138 148.917541-146.9985 0.307046-39.532234-15.122039-77.529235-42.986507-105.547227-27.787706-28.017991-65.707946-43.830885-105.163418-43.754123z m0 0M799.318457 708.432984h-59.72054v-58.952924c0-10.823388-8.827586-19.650975-19.650975-19.650975-10.823388 0-19.650975 8.827586-19.650974 19.650975v58.952924h-58.185307c-10.823388 0-19.650975 8.827586-19.650975 19.650974 0 10.823388 8.827586 19.650975 19.650975 19.650975h58.185307v58.569115c-0.076762 10.209295 7.522639 18.806597 17.655172 20.034783 10.746627-0.230285 19.42069-8.904348 19.650975-19.650975v-58.952923H797.322655c10.823388 0 19.650975-8.827586 19.650974-19.650975 0.076762-10.132534-7.5994-18.653073-17.655172-19.650974z m0 0" p-id="5269"></path><path d="M476.766133 618.314843c-2.226087-6.294453-8.136732-10.362819-14.431185-10.362819-6.601499 0-12.588906 4.068366-14.431184 10.362819l-34.235682 95.261169c-1.91904 5.68036-0.614093 11.667766 3.454273 16.043178l34.235682 35.54063c2.84018 3.147226 6.908546 4.682459 11.283958 4.682459 4.375412 0 8.136732-1.535232 11.283958-4.682459l34.235682-35.54063c4.068366-4.375412 5.373313-10.362819 3.454273-16.043178l-34.849775-95.261169z m-14.431185 113.837481l-16.350225-16.964318 16.350225-45.596402 16.350225 45.596402-16.350225 16.964318z m0 0" p-id="5270"></path></svg>